<svg width="512" height="512" viewBox="0 0 512 512" fill="none" xmlns="http://www.w3.org/2000/svg">
<rect width="512" height="512" rx="34" fill="#333333"/>
<g clip-path="url(#clip0_13_311)">
<path d="M56 68.5C56 65.1848 57.317 62.0054 59.6612 59.6612C62.0054 57.317 65.1848 56 68.5 56H143.5C146.815 56 149.995 57.317 152.339 59.6612C154.683 62.0054 156 65.1848 156 68.5C156 71.8152 154.683 74.9946 152.339 77.3388C149.995 79.683 146.815 81 143.5 81H102C90.402 81 81 90.402 81 102V143.5C81 146.815 79.683 149.995 77.3388 152.339C74.9946 154.683 71.8152 156 68.5 156C65.1848 156 62.0054 154.683 59.6612 152.339C57.317 149.995 56 146.815 56 143.5V68.5ZM356 68.5C356 65.1848 357.317 62.0054 359.661 59.6612C362.005 57.317 365.185 56 368.5 56H443.5C446.815 56 449.995 57.317 452.339 59.6612C454.683 62.0054 456 65.1848 456 68.5V143.5C456 146.815 454.683 149.995 452.339 152.339C449.995 154.683 446.815 156 443.5 156C440.185 156 437.005 154.683 434.661 152.339C432.317 149.995 431 146.815 431 143.5V102C431 90.402 421.598 81 410 81H368.5C365.185 81 362.005 79.683 359.661 77.3388C357.317 74.9946 356 71.8152 356 68.5ZM68.5 356C71.8152 356 74.9946 357.317 77.3388 359.661C79.683 362.005 81 365.185 81 368.5V410C81 421.598 90.402 431 102 431H143.5C146.815 431 149.995 432.317 152.339 434.661C154.683 437.005 156 440.185 156 443.5C156 446.815 154.683 449.995 152.339 452.339C149.995 454.683 146.815 456 143.5 456H68.5C65.1848 456 62.0054 454.683 59.6612 452.339C57.317 449.995 56 446.815 56 443.5V368.5C56 365.185 57.317 362.005 59.6612 359.661C62.0054 357.317 65.1848 356 68.5 356ZM443.5 356C446.815 356 449.995 357.317 452.339 359.661C454.683 362.005 456 365.185 456 368.5V443.5C456 446.815 454.683 449.995 452.339 452.339C449.995 454.683 446.815 456 443.5 456H368.5C365.185 456 362.005 454.683 359.661 452.339C357.317 449.995 356 446.815 356 443.5C356 440.185 357.317 437.005 359.661 434.661C362.005 432.317 365.185 431 368.5 431H410C421.598 431 431 421.598 431 410V368.5C431 365.185 432.317 362.005 434.661 359.661C437.005 357.317 440.185 356 443.5 356ZM156 168.5C156 161.596 161.596 156 168.5 156C175.404 156 181 161.596 181 168.5C181 175.404 175.404 181 168.5 181C161.596 181 156 175.404 156 168.5Z" fill="#FDB623"/>
<path d="M231 106H106V231H231V106ZM131 131H206V206H131V131ZM181 331H156V356H181V331Z" fill="white"/>
<path d="M231 281H106V406H231V281ZM131 306H206V381H131V306ZM331 156H356V181H331V156Z" fill="white"/>
<path d="M281 106H406V231H281V106ZM306 131V206H381V131H306ZM256 256V306H281V331H256V356H306V306H331V356H356V331H406V306H331V256H256ZM306 306H281V281H306V306ZM406 356H381V381H331V406H406V356ZM306 406V381H256V406H306Z" fill="white"/>
<path d="M356 281H406V256H356V281Z" fill="white"/>
<circle cx="168.222" cy="168.222" r="14.4444" fill="#FDB623"/>
<path d="M63.7778 256L451.556 252.667" stroke="#FDB623" stroke-width="7" stroke-linecap="round" stroke-linejoin="round"/>
</g>
<defs>
<clipPath id="clip0_13_311">
<rect width="400" height="400" fill="white" transform="translate(56 56)"/>
</clipPath>
</defs>
</svg>
